<svg width="229" height="68" viewBox="0 0 229 68" fill="none" xmlns="http://www.w3.org/2000/svg">
<path d="M63.408 35.936C63.824 36.864 63.84 37.776 63.456 38.672C63.072 39.536 62.464 40.336 61.632 41.072C60.8 41.808 59.84 42.448 58.752 42.992C57.696 43.536 56.688 43.92 55.728 44.144C54.672 44.368 53.552 44.464 52.368 44.432C51.216 44.432 50.048 44.288 48.864 44C47.712 43.744 46.576 43.36 45.456 42.848C44.368 42.304 43.36 41.648 42.432 40.88C41.312 39.952 40.432 38.848 39.792 37.568C39.184 36.256 38.736 34.864 38.448 33.392C38.16 31.92 38 30.448 37.968 28.976C37.968 27.472 38.016 26.064 38.112 24.752C38.208 23.568 38.448 22.336 38.832 21.056C39.216 19.776 39.744 18.528 40.416 17.312C41.12 16.064 41.952 14.912 42.912 13.856C43.904 12.8 45.056 11.904 46.368 11.168C47.36 10.592 48.464 10.208 49.68 10.016C50.928 9.792 52.176 9.744 53.424 9.872C54.704 9.968 55.904 10.24 57.024 10.688C58.176 11.104 59.152 11.68 59.952 12.416C60.464 12.864 60.992 13.488 61.536 14.288C62.112 15.088 62.528 15.904 62.784 16.736C63.04 17.568 63.04 18.352 62.784 19.088C62.56 19.792 61.92 20.272 60.864 20.528C60.416 20.656 60.016 20.688 59.664 20.624C59.312 20.528 58.992 20.384 58.704 20.192C58.416 19.968 58.144 19.712 57.888 19.424C57.632 19.136 57.392 18.848 57.168 18.56C56.4 17.632 55.504 17.008 54.48 16.688C53.456 16.336 52.432 16.256 51.408 16.448C50.416 16.608 49.472 17.024 48.576 17.696C47.712 18.336 47.04 19.168 46.56 20.192C46.048 21.28 45.632 22.48 45.312 23.792C45.024 25.072 44.864 26.384 44.832 27.728C44.8 29.04 44.912 30.32 45.168 31.568C45.456 32.816 45.936 33.92 46.608 34.88C47.12 35.648 47.744 36.272 48.48 36.752C49.248 37.232 50.064 37.568 50.928 37.76C51.792 37.952 52.656 37.984 53.52 37.856C54.416 37.728 55.28 37.44 56.112 36.992C56.368 36.864 56.64 36.688 56.928 36.464C57.248 36.208 57.568 35.952 57.888 35.696C58.208 35.44 58.528 35.2 58.848 34.976C59.2 34.752 59.568 34.592 59.952 34.496C60.528 34.304 61.152 34.32 61.824 34.544C62.528 34.768 63.056 35.232 63.408 35.936ZM86.3119 34.544C86.3439 35.184 86.3599 35.856 86.3599 36.56C86.3599 37.232 86.3439 37.856 86.3119 38.432C86.2799 39.296 86.2319 40.096 86.1679 40.832C86.1039 41.536 85.9759 42.144 85.7839 42.656C85.5919 43.136 85.2879 43.504 84.8719 43.76C84.4879 43.984 83.9439 44.048 83.2399 43.952C82.5039 43.856 81.9759 43.504 81.6559 42.896C81.3359 42.288 81.1119 41.6 80.9839 40.832C80.8879 40.032 80.8559 39.232 80.8879 38.432C80.9199 37.632 80.9199 37.008 80.8879 36.56C80.8559 35.856 80.8239 35.056 80.7919 34.16C80.7919 33.232 80.6959 32.368 80.5039 31.568C80.3439 30.736 80.0559 30.032 79.6399 29.456C79.2239 28.88 78.5999 28.576 77.7679 28.544C76.7119 28.48 75.8959 28.56 75.3199 28.784C74.7759 29.008 74.3759 29.344 74.1199 29.792C73.8639 30.208 73.7039 30.72 73.6399 31.328C73.6079 31.936 73.5439 32.592 73.4479 33.296L73.3999 35.168V38.672C73.3999 39.248 73.3839 39.856 73.3519 40.496C73.3519 41.104 73.2559 41.664 73.0639 42.176C72.8719 42.688 72.5679 43.12 72.1519 43.472C71.7679 43.824 71.1919 44 70.4239 44C69.4639 44 68.7439 43.696 68.2639 43.088C67.8159 42.448 67.5919 41.664 67.5919 40.736V13.136C67.5919 12.944 67.5919 12.768 67.5919 12.608C67.6239 12.416 67.6559 12.224 67.6879 12.032C67.7519 11.84 67.7999 11.664 67.8319 11.504C67.8639 11.312 67.9119 11.136 67.9759 10.976C68.0719 10.656 68.2319 10.416 68.4559 10.256C68.6159 10.096 68.7759 9.968 68.9359 9.872C69.0959 9.776 69.2719 9.712 69.4639 9.68C69.6239 9.648 69.7999 9.632 69.9919 9.632C70.1839 9.6 70.3759 9.584 70.5679 9.584C71.0479 9.584 71.5119 9.728 71.9599 10.016C72.1519 10.144 72.3279 10.288 72.4879 10.448C72.6479 10.576 72.7759 10.768 72.8719 11.024C73.1279 11.632 73.2559 12.208 73.2559 12.752C73.2879 12.912 73.3039 13.152 73.3039 13.472C73.3359 13.76 73.3519 14.064 73.3519 14.384C73.3519 14.704 73.3519 15.024 73.3519 15.344C73.3839 15.632 73.3999 15.856 73.3999 16.016V16.256C73.4319 17.28 73.4479 18.32 73.4479 19.376C73.4479 20.432 73.4479 21.504 73.4479 22.592V23.408C74.7919 22.96 76.1999 22.752 77.6719 22.784C79.1439 22.784 80.4559 23.072 81.6079 23.648C82.7919 24.256 83.6879 24.944 84.2959 25.712C84.9359 26.48 85.3999 27.328 85.6879 28.256C85.9759 29.184 86.1359 30.176 86.1679 31.232C86.2319 32.288 86.2799 33.392 86.3119 34.544ZM95.8016 23.792C96.7616 23.312 97.7696 22.976 98.8256 22.784C99.8816 22.56 100.922 22.512 101.946 22.64C103.002 22.736 104.01 23.008 104.97 23.456C105.93 23.872 106.826 24.48 107.658 25.28C108.49 26.112 109.13 27.024 109.578 28.016C110.026 29.008 110.346 30.112 110.538 31.328C110.666 32.16 110.874 32.928 111.162 33.632C111.45 34.336 111.754 35.04 112.074 35.744C112.426 36.448 112.746 37.152 113.034 37.856C113.354 38.56 113.61 39.296 113.802 40.064C113.962 40.8 113.898 41.52 113.61 42.224C113.354 42.896 112.81 43.312 111.978 43.472C111.498 43.568 111.034 43.536 110.586 43.376C110.17 43.184 109.786 42.928 109.434 42.608C109.082 42.256 108.762 41.888 108.474 41.504C108.218 41.088 107.978 40.704 107.754 40.352C107.018 41.312 106.218 42.064 105.354 42.608C104.49 43.12 103.45 43.456 102.234 43.616C101.21 43.744 100.234 43.776 99.3056 43.712C98.3776 43.648 97.3856 43.472 96.3296 43.184C94.9536 42.832 93.8176 42.224 92.9216 41.36C92.0576 40.464 91.3856 39.44 90.9056 38.288C90.4576 37.104 90.2176 35.84 90.1856 34.496C90.1536 33.152 90.3136 31.824 90.6656 30.512C91.1136 28.784 91.7856 27.376 92.6816 26.288C93.5776 25.2 94.6176 24.368 95.8016 23.792ZM97.0016 29.408C96.5536 29.856 96.2016 30.384 95.9456 30.992C95.6896 31.6 95.5296 32.24 95.4656 32.912C95.4336 33.584 95.4976 34.256 95.6576 34.928C95.8176 35.6 96.0736 36.192 96.4256 36.704C96.7456 37.152 97.2896 37.536 98.0576 37.856C98.8256 38.144 99.6256 38.32 100.458 38.384C101.418 38.448 102.25 38.192 102.954 37.616C103.69 37.04 104.234 36.32 104.586 35.456C104.97 34.56 105.146 33.616 105.114 32.624C105.082 31.6 104.81 30.672 104.298 29.84C103.914 29.232 103.402 28.784 102.762 28.496C102.154 28.208 101.498 28.064 100.794 28.064C100.09 28.032 99.3856 28.144 98.6816 28.4C98.0096 28.624 97.4496 28.96 97.0016 29.408ZM132.619 22.832C132.875 23.44 132.891 24.112 132.667 24.848C132.475 25.584 132.107 26.064 131.563 26.288C131.275 26.416 130.891 26.528 130.411 26.624C129.931 26.688 129.403 26.752 128.827 26.816C128.283 26.88 127.739 26.928 127.195 26.96C126.651 26.992 126.187 27.008 125.803 27.008C125.835 27.968 125.867 28.96 125.899 29.984C125.931 30.976 125.963 31.952 125.995 32.912C126.027 33.872 126.043 34.8 126.043 35.696C126.043 36.56 126.027 37.344 125.995 38.048C125.995 38.528 125.995 39.088 125.995 39.728C125.995 40.336 125.947 40.928 125.851 41.504C125.787 42.08 125.675 42.592 125.515 43.04C125.355 43.456 125.115 43.728 124.795 43.856C123.803 44.272 122.891 44.384 122.059 44.192C121.259 44.032 120.683 43.696 120.331 43.184C120.075 42.768 119.883 42.288 119.755 41.744C119.627 41.168 119.531 40.592 119.467 40.016C119.435 39.408 119.419 38.832 119.419 38.288C119.451 37.712 119.467 37.216 119.467 36.8C119.499 35.456 119.515 33.936 119.515 32.24C119.547 30.512 119.563 28.784 119.563 27.056H118.843C118.459 27.056 117.963 27.056 117.355 27.056C116.779 27.024 116.187 26.976 115.579 26.912C115.003 26.816 114.459 26.704 113.947 26.576C113.435 26.416 113.067 26.192 112.843 25.904C112.491 25.488 112.267 25.04 112.171 24.56C112.107 24.08 112.139 23.632 112.267 23.216C112.427 22.768 112.667 22.384 112.987 22.064C113.307 21.712 113.675 21.488 114.091 21.392C114.667 21.232 115.483 21.152 116.539 21.152C117.595 21.12 118.587 21.12 119.515 21.152C119.483 20.832 119.467 20.528 119.467 20.24C119.467 19.92 119.451 19.616 119.419 19.328C119.387 18.944 119.371 18.464 119.371 17.888C119.371 17.28 119.403 16.688 119.467 16.112C119.563 15.504 119.707 14.944 119.899 14.432C120.091 13.888 120.363 13.472 120.715 13.184C121.195 12.8 121.675 12.592 122.155 12.56C122.667 12.496 123.131 12.56 123.547 12.752C123.995 12.944 124.363 13.232 124.651 13.616C124.971 13.968 125.195 14.368 125.323 14.816C125.419 15.2 125.499 15.664 125.563 16.208C125.627 16.72 125.659 17.264 125.659 17.84C125.691 18.416 125.707 18.992 125.707 19.568C125.707 20.144 125.707 20.672 125.707 21.152H126.187C126.667 21.152 127.227 21.136 127.867 21.104C128.507 21.072 129.131 21.088 129.739 21.152C130.379 21.216 130.955 21.376 131.467 21.632C131.979 21.856 132.363 22.256 132.619 22.832ZM165.918 40.544C165.886 40.928 165.838 41.328 165.774 41.744C165.71 42.16 165.598 42.544 165.438 42.896C165.278 43.28 165.07 43.568 164.814 43.76C164.462 44.08 164.046 44.256 163.566 44.288C163.118 44.448 162.686 44.496 162.27 44.432C161.854 44.368 161.47 44.256 161.118 44.096C160.67 43.808 160.334 43.472 160.11 43.088C159.918 42.672 159.774 42.24 159.678 41.792C159.582 41.344 159.534 40.88 159.534 40.4C159.534 39.92 159.534 39.472 159.534 39.056V35.312L159.486 27.968C159.486 27.456 159.486 27.056 159.486 26.768C159.486 26.48 159.486 26.224 159.486 26C159.486 25.744 159.47 25.472 159.438 25.184C159.438 24.864 159.438 24.416 159.438 23.84C159.438 23.744 159.438 23.584 159.438 23.36C159.47 23.104 159.454 22.448 159.39 21.392C158.142 23.472 157.102 25.152 156.27 26.432C155.47 27.68 154.782 28.656 154.206 29.36C153.662 30.032 153.182 30.496 152.766 30.752C152.35 30.976 151.918 31.104 151.47 31.136C151.214 31.168 150.958 31.12 150.702 30.992C150.446 30.864 150.19 30.704 149.934 30.512C149.71 30.32 149.486 30.128 149.262 29.936C149.07 29.712 148.91 29.504 148.782 29.312C148.014 28.352 147.15 27.2 146.19 25.856C145.23 24.512 144.238 22.88 143.214 20.96C143.214 20.992 143.198 21.52 143.166 22.544C143.166 23.568 143.166 24.848 143.166 26.384C143.166 27.888 143.15 29.52 143.118 31.28C143.118 33.008 143.102 34.624 143.07 36.128C143.07 37.632 143.054 38.896 143.022 39.92C142.99 40.912 142.958 41.408 142.926 41.408C142.926 41.952 142.798 42.464 142.542 42.944C142.286 43.392 141.934 43.76 141.486 44.048C141.07 44.336 140.574 44.496 139.998 44.528C139.422 44.56 138.798 44.4 138.126 44.048C137.71 43.792 137.39 43.424 137.166 42.944C136.974 42.464 136.846 42.016 136.782 41.6C136.75 41.152 136.718 40.72 136.686 40.304C136.686 39.888 136.686 39.456 136.686 39.008L136.734 35.264L136.782 27.872V21.44C136.782 18.656 136.878 15.92 137.07 13.232C137.07 12.88 137.102 12.56 137.166 12.272C137.262 11.952 137.374 11.648 137.502 11.36C137.758 10.848 138.094 10.464 138.51 10.208C138.99 9.92 139.502 9.776 140.046 9.776C140.27 9.776 140.478 9.792 140.67 9.824C140.894 9.824 141.102 9.84 141.294 9.872C141.934 10 142.478 10.384 142.926 11.024C143.406 11.632 143.854 12.16 144.27 12.608C144.526 12.896 144.798 13.248 145.086 13.664C145.374 14.08 145.662 14.512 145.95 14.96C146.238 15.408 146.51 15.84 146.766 16.256C147.022 16.672 147.246 17.04 147.438 17.36C148.27 18.704 149.006 19.936 149.646 21.056C150.318 22.176 150.942 23.136 151.518 23.936C151.614 23.84 151.726 23.712 151.854 23.552C151.982 23.36 152.11 23.168 152.238 22.976C152.398 22.752 152.526 22.544 152.622 22.352C152.75 22.16 152.846 22 152.91 21.872C153.23 21.36 153.55 20.864 153.87 20.384C154.19 19.872 154.526 19.344 154.878 18.8C155.262 18.224 155.646 17.6 156.03 16.928C156.446 16.256 156.926 15.488 157.47 14.624C157.694 14.24 157.982 13.776 158.334 13.232C158.686 12.688 159.086 12.16 159.534 11.648C159.982 11.136 160.446 10.704 160.926 10.352C161.438 9.968 161.95 9.776 162.462 9.776C162.718 9.776 162.942 9.792 163.134 9.824C163.326 9.824 163.518 9.84 163.71 9.872C164.094 9.904 164.462 10.08 164.814 10.4C165.07 10.656 165.262 10.928 165.39 11.216C165.518 11.632 165.598 11.984 165.63 12.272C165.662 12.496 165.678 12.704 165.678 12.896C165.71 13.088 165.726 13.28 165.726 13.472C165.726 15.264 165.742 17.04 165.774 18.8C165.806 20.56 165.822 22.336 165.822 24.128C165.822 26.304 165.822 28.544 165.822 30.848C165.854 33.152 165.87 35.392 165.87 37.568C165.87 38.016 165.886 38.496 165.918 39.008C165.95 39.52 165.95 40.032 165.918 40.544ZM186.434 37.424C186.818 37.328 187.202 37.264 187.586 37.232C188.002 37.2 188.37 37.248 188.69 37.376C189.042 37.504 189.33 37.728 189.554 38.048C189.778 38.336 189.89 38.752 189.89 39.296C189.89 39.68 189.794 40.048 189.602 40.4C189.41 40.752 189.17 41.072 188.882 41.36C188.594 41.648 188.274 41.904 187.922 42.128C187.57 42.32 187.234 42.48 186.914 42.608C185.986 43.024 184.914 43.344 183.698 43.568C182.514 43.792 181.282 43.872 180.002 43.808C178.274 43.744 176.61 43.408 175.01 42.8C173.442 42.16 172.21 41.12 171.314 39.68C170.482 38.272 169.986 36.704 169.826 34.976C169.666 33.248 169.746 31.616 170.066 30.08C170.418 28.224 171.01 26.72 171.842 25.568C172.706 24.384 173.73 23.44 174.914 22.736C176.354 21.904 177.97 21.472 179.762 21.44C181.554 21.408 183.266 21.76 184.898 22.496C185.986 22.976 186.962 23.632 187.826 24.464C188.69 25.264 189.346 26.24 189.794 27.392C189.922 27.68 190.018 28.032 190.082 28.448C190.178 28.864 190.242 29.312 190.274 29.792C190.306 30.24 190.306 30.688 190.274 31.136C190.242 31.584 190.162 31.984 190.034 32.336C189.842 32.912 189.602 33.36 189.314 33.68C189.026 34 188.658 34.24 188.21 34.4C187.762 34.56 187.218 34.672 186.578 34.736C185.97 34.768 185.234 34.8 184.37 34.832C183.602 34.864 182.882 34.88 182.21 34.88C181.538 34.88 180.85 34.88 180.146 34.88C179.442 34.848 178.706 34.832 177.938 34.832C177.202 34.8 176.37 34.768 175.442 34.736C175.346 35.376 175.426 35.936 175.682 36.416C175.97 36.864 176.354 37.248 176.834 37.568C177.314 37.856 177.858 38.08 178.466 38.24C179.074 38.4 179.666 38.496 180.242 38.528C181.33 38.592 182.37 38.512 183.362 38.288C184.354 38.032 185.378 37.744 186.434 37.424ZM184.37 28.112C183.762 27.408 183.122 26.896 182.45 26.576C181.938 26.352 181.394 26.256 180.818 26.288C180.274 26.288 179.746 26.368 179.234 26.528C178.306 26.752 177.522 27.232 176.882 27.968C176.818 28.032 176.706 28.192 176.546 28.448C176.386 28.672 176.226 28.912 176.066 29.168C175.938 29.424 175.842 29.664 175.778 29.888C175.714 30.112 175.746 30.224 175.874 30.224H185.282C185.25 29.776 185.17 29.408 185.042 29.12C184.914 28.8 184.69 28.464 184.37 28.112Z" fill="#4060D2"/>
<path d="M7.56 63.968C7.392 64.16 7.156 64.344 6.852 64.52C6.556 64.696 6.212 64.84 5.82 64.952C5.436 65.064 5.024 65.12 4.584 65.12C3.832 65.12 3.152 64.944 2.544 64.592C1.944 64.232 1.464 63.728 1.104 63.08C0.752 62.432 0.576 61.672 0.576 60.8C0.576 60.184 0.684 59.616 0.9 59.096C1.116 58.576 1.416 58.124 1.8 57.74C2.184 57.356 2.624 57.06 3.12 56.852C3.616 56.636 4.14 56.528 4.692 56.528C5.148 56.528 5.572 56.6 5.964 56.744C6.364 56.88 6.712 57.06 7.008 57.284C7.312 57.5 7.548 57.732 7.716 57.98L6.852 58.88C6.556 58.576 6.228 58.324 5.868 58.124C5.508 57.924 5.116 57.824 4.692 57.824C4.212 57.824 3.756 57.944 3.324 58.184C2.9 58.424 2.556 58.768 2.292 59.216C2.028 59.656 1.896 60.184 1.896 60.8C1.896 61.472 2.028 62.032 2.292 62.48C2.564 62.928 2.92 63.264 3.36 63.488C3.808 63.704 4.288 63.812 4.8 63.812C5.272 63.812 5.688 63.72 6.048 63.536C6.408 63.344 6.696 63.136 6.912 62.912L7.56 63.968ZM15.0445 61.844C15.0445 62.484 14.9005 63.052 14.6125 63.548C14.3325 64.036 13.9485 64.42 13.4605 64.7C12.9805 64.98 12.4405 65.12 11.8405 65.12C11.2405 65.12 10.6965 64.98 10.2085 64.7C9.72053 64.42 9.33253 64.036 9.04453 63.548C8.76453 63.052 8.62453 62.484 8.62453 61.844C8.62453 61.204 8.76453 60.64 9.04453 60.152C9.33253 59.656 9.72053 59.268 10.2085 58.988C10.6965 58.708 11.2405 58.568 11.8405 58.568C12.4405 58.568 12.9805 58.708 13.4605 58.988C13.9485 59.268 14.3325 59.656 14.6125 60.152C14.9005 60.64 15.0445 61.204 15.0445 61.844ZM13.7845 61.844C13.7925 61.42 13.7085 61.048 13.5325 60.728C13.3645 60.4 13.1325 60.148 12.8365 59.972C12.5405 59.788 12.2085 59.696 11.8405 59.696C11.4725 59.696 11.1365 59.788 10.8325 59.972C10.5365 60.148 10.3005 60.4 10.1245 60.728C9.95653 61.048 9.87653 61.42 9.88453 61.844C9.87653 62.26 9.95653 62.632 10.1245 62.96C10.3005 63.28 10.5365 63.532 10.8325 63.716C11.1365 63.9 11.4725 63.992 11.8405 63.992C12.2085 63.992 12.5405 63.9 12.8365 63.716C13.1325 63.532 13.3645 63.28 13.5325 62.96C13.7085 62.632 13.7925 62.26 13.7845 61.844ZM19.6913 58.568C20.2593 58.568 20.6993 58.684 21.0113 58.916C21.3233 59.148 21.5393 59.46 21.6593 59.852C21.7873 60.244 21.8513 60.68 21.8513 61.16V65H20.6153V61.244C20.6153 60.94 20.5753 60.668 20.4953 60.428C20.4153 60.188 20.2793 60 20.0873 59.864C19.8953 59.728 19.6273 59.672 19.2833 59.696C18.9633 59.696 18.6793 59.764 18.4313 59.9C18.1833 60.036 17.9873 60.216 17.8433 60.44C17.6993 60.664 17.6273 60.912 17.6273 61.184V65H16.3913V58.7H17.6273V59.696C17.8193 59.4 18.0993 59.14 18.4673 58.916C18.8353 58.684 19.2433 58.568 19.6913 58.568ZM26.8281 58.568C27.3961 58.568 27.8361 58.684 28.1481 58.916C28.4601 59.148 28.6761 59.46 28.7961 59.852C28.9241 60.244 28.9881 60.68 28.9881 61.16V65H27.7521V61.244C27.7521 60.94 27.7121 60.668 27.6321 60.428C27.5521 60.188 27.4161 60 27.2241 59.864C27.0321 59.728 26.7641 59.672 26.4201 59.696C26.1001 59.696 25.8161 59.764 25.5681 59.9C25.3201 60.036 25.1241 60.216 24.9801 60.44C24.8361 60.664 24.7641 60.912 24.7641 61.184V65H23.5281V58.7H24.7641V59.696C24.9561 59.4 25.2361 59.14 25.6041 58.916C25.9721 58.684 26.3801 58.568 26.8281 58.568ZM36.0768 64.172H36.0648C35.8088 64.42 35.4568 64.64 35.0088 64.832C34.5608 65.024 34.0928 65.12 33.6048 65.12C32.9488 65.12 32.3688 64.984 31.8648 64.712C31.3688 64.432 30.9808 64.052 30.7008 63.572C30.4208 63.084 30.2808 62.532 30.2808 61.916C30.2808 61.212 30.4288 60.612 30.7248 60.116C31.0208 59.612 31.4128 59.228 31.9008 58.964C32.3888 58.692 32.9208 58.556 33.4968 58.556C34.0248 58.556 34.5048 58.688 34.9368 58.952C35.3688 59.208 35.7128 59.564 35.9688 60.02C36.2248 60.476 36.3528 61.008 36.3528 61.616L36.3408 62.144H31.5168C31.5888 62.712 31.8208 63.164 32.2128 63.5C32.6128 63.828 33.1168 63.992 33.7248 63.992C34.1648 63.992 34.5208 63.912 34.7928 63.752C35.0648 63.584 35.2888 63.424 35.4648 63.272L36.0768 64.172ZM33.4968 59.696C33.0248 59.696 32.6128 59.808 32.2608 60.032C31.9088 60.248 31.6768 60.624 31.5648 61.16H35.0928V61.076C35.0688 60.804 34.9768 60.564 34.8168 60.356C34.6648 60.148 34.4728 59.988 34.2408 59.876C34.0088 59.756 33.7608 59.696 33.4968 59.696ZM38.488 61.844C38.488 62.26 38.58 62.632 38.764 62.96C38.956 63.28 39.204 63.536 39.508 63.728C39.82 63.912 40.152 64.004 40.504 64.004C40.904 64.004 41.252 63.9 41.548 63.692C41.844 63.484 42.084 63.268 42.268 63.044L42.952 63.884C42.8 64.1 42.592 64.304 42.328 64.496C42.064 64.68 41.764 64.832 41.428 64.952C41.092 65.064 40.74 65.12 40.372 65.12C39.796 65.12 39.276 64.976 38.812 64.688C38.348 64.4 37.98 64.008 37.708 63.512C37.444 63.016 37.312 62.46 37.312 61.844C37.312 61.22 37.444 60.664 37.708 60.176C37.98 59.68 38.348 59.288 38.812 59C39.276 58.712 39.796 58.568 40.372 58.568C40.956 58.568 41.476 58.688 41.932 58.928C42.388 59.16 42.728 59.464 42.952 59.84L42.268 60.68C42.084 60.408 41.82 60.176 41.476 59.984C41.14 59.784 40.812 59.684 40.492 59.684C40.116 59.684 39.776 59.78 39.472 59.972C39.168 60.156 38.928 60.412 38.752 60.74C38.576 61.06 38.488 61.428 38.488 61.844ZM46.1339 65H44.8979V59.9H43.5899V58.7H44.8979V57.092H46.1339V58.7H47.5979V59.9H46.1339V65ZM62.8867 56.6L60.2107 65H59.3107L57.1507 59.9L55.0627 65H54.1867L51.5107 56.6H52.8907L54.5107 61.856C54.5667 62.048 54.6147 62.232 54.6547 62.408C54.7027 62.584 54.7427 62.752 54.7747 62.912C54.8147 62.752 54.8627 62.584 54.9187 62.408C54.9747 62.232 55.0427 62.044 55.1227 61.844L56.6347 58.052H57.7987L59.2627 61.844C59.3507 62.06 59.4227 62.256 59.4787 62.432C59.5347 62.6 59.5827 62.756 59.6227 62.9C59.6467 62.756 59.6787 62.596 59.7187 62.42C59.7667 62.244 59.8267 62.044 59.8987 61.82L61.4947 56.6H62.8867ZM64.8678 57.332C64.5878 57.332 64.3798 57.26 64.2438 57.116C64.1078 56.972 64.0398 56.784 64.0398 56.552C64.0398 56.352 64.1078 56.172 64.2438 56.012C64.3798 55.852 64.5878 55.772 64.8678 55.772C65.1478 55.772 65.3558 55.844 65.4918 55.988C65.6278 56.132 65.6958 56.32 65.6958 56.552C65.6958 56.752 65.6278 56.932 65.4918 57.092C65.3558 57.252 65.1478 57.332 64.8678 57.332ZM65.5038 65H64.2678V58.7H65.5038V65ZM69.3956 65H68.1596V59.9H66.8516V58.7H68.1596V57.092H69.3956V58.7H70.8596V59.9H69.3956V65ZM75.2851 58.568C75.8531 58.568 76.2931 58.684 76.6051 58.916C76.9171 59.148 77.1331 59.46 77.2531 59.852C77.3811 60.244 77.4451 60.68 77.4451 61.16V65H76.2091V61.244C76.2091 60.94 76.1691 60.668 76.0891 60.428C76.0091 60.188 75.8731 60 75.6811 59.864C75.4891 59.728 75.2211 59.672 74.8771 59.696C74.5571 59.696 74.2731 59.764 74.0251 59.9C73.7771 60.036 73.5811 60.216 73.4371 60.44C73.2931 60.664 73.2211 60.912 73.2211 61.184V65H71.9851V56.12H73.2211V59.696C73.4131 59.4 73.6931 59.14 74.0611 58.916C74.4291 58.684 74.8371 58.568 75.2851 58.568ZM86.2171 56.6C86.6651 56.6 87.0771 56.716 87.4531 56.948C87.8291 57.172 88.1291 57.48 88.3531 57.872C88.5771 58.256 88.6891 58.692 88.6891 59.18C88.6891 59.66 88.5771 60.1 88.3531 60.5C88.1291 60.892 87.8291 61.204 87.4531 61.436C87.0771 61.668 86.6651 61.784 86.2171 61.784H84.0931V65H82.7971V56.6H86.2171ZM86.1931 60.536C86.4091 60.536 86.6051 60.476 86.7811 60.356C86.9571 60.228 87.0971 60.064 87.2011 59.864C87.3131 59.656 87.3691 59.428 87.3691 59.18C87.3691 58.804 87.2531 58.488 87.0211 58.232C86.7891 57.976 86.5131 57.848 86.1931 57.848H84.0931V60.536H86.1931ZM95.3854 64.172H95.3734C95.1174 64.42 94.7654 64.64 94.3174 64.832C93.8694 65.024 93.4014 65.12 92.9134 65.12C92.2574 65.12 91.6774 64.984 91.1734 64.712C90.6774 64.432 90.2894 64.052 90.0094 63.572C89.7294 63.084 89.5894 62.532 89.5894 61.916C89.5894 61.212 89.7374 60.612 90.0334 60.116C90.3294 59.612 90.7214 59.228 91.2094 58.964C91.6974 58.692 92.2294 58.556 92.8054 58.556C93.3334 58.556 93.8134 58.688 94.2454 58.952C94.6774 59.208 95.0214 59.564 95.2774 60.02C95.5334 60.476 95.6614 61.008 95.6614 61.616L95.6494 62.144H90.8254C90.8974 62.712 91.1294 63.164 91.5214 63.5C91.9214 63.828 92.4254 63.992 93.0334 63.992C93.4734 63.992 93.8294 63.912 94.1014 63.752C94.3734 63.584 94.5974 63.424 94.7734 63.272L95.3854 64.172ZM92.8054 59.696C92.3334 59.696 91.9214 59.808 91.5694 60.032C91.2174 60.248 90.9854 60.624 90.8734 61.16H94.4014V61.076C94.3774 60.804 94.2854 60.564 94.1254 60.356C93.9734 60.148 93.7814 59.988 93.5494 59.876C93.3174 59.756 93.0694 59.696 92.8054 59.696ZM103.041 61.844C103.041 62.484 102.897 63.052 102.609 63.548C102.329 64.036 101.945 64.42 101.457 64.7C100.977 64.98 100.437 65.12 99.8366 65.12C99.2366 65.12 98.6926 64.98 98.2046 64.7C97.7166 64.42 97.3286 64.036 97.0406 63.548C96.7606 63.052 96.6206 62.484 96.6206 61.844C96.6206 61.204 96.7606 60.64 97.0406 60.152C97.3286 59.656 97.7166 59.268 98.2046 58.988C98.6926 58.708 99.2366 58.568 99.8366 58.568C100.437 58.568 100.977 58.708 101.457 58.988C101.945 59.268 102.329 59.656 102.609 60.152C102.897 60.64 103.041 61.204 103.041 61.844ZM101.781 61.844C101.789 61.42 101.705 61.048 101.529 60.728C101.361 60.4 101.129 60.148 100.833 59.972C100.537 59.788 100.205 59.696 99.8366 59.696C99.4686 59.696 99.1326 59.788 98.8286 59.972C98.5326 60.148 98.2966 60.4 98.1206 60.728C97.9526 61.048 97.8726 61.42 97.8806 61.844C97.8726 62.26 97.9526 62.632 98.1206 62.96C98.2966 63.28 98.5326 63.532 98.8286 63.716C99.1326 63.9 99.4686 63.992 99.8366 63.992C100.205 63.992 100.537 63.9 100.833 63.716C101.129 63.532 101.361 63.28 101.529 62.96C101.705 62.632 101.789 62.26 101.781 61.844ZM107.675 58.592C108.235 58.592 108.735 58.732 109.175 59.012C109.623 59.284 109.975 59.664 110.231 60.152C110.487 60.64 110.615 61.204 110.615 61.844C110.615 62.476 110.487 63.04 110.231 63.536C109.975 64.024 109.627 64.408 109.187 64.688C108.747 64.968 108.255 65.108 107.711 65.108C107.263 65.108 106.855 65.012 106.487 64.82C106.127 64.628 105.843 64.408 105.635 64.16V67.64H104.387V58.688H105.635V59.612C105.819 59.348 106.095 59.112 106.463 58.904C106.831 58.696 107.235 58.592 107.675 58.592ZM107.507 59.732C107.131 59.732 106.795 59.824 106.499 60.008C106.211 60.192 105.983 60.444 105.815 60.764C105.655 61.076 105.575 61.436 105.575 61.844C105.575 62.244 105.655 62.604 105.815 62.924C105.983 63.244 106.211 63.5 106.499 63.692C106.795 63.876 107.131 63.968 107.507 63.968C107.883 63.968 108.215 63.876 108.503 63.692C108.791 63.5 109.015 63.244 109.175 62.924C109.343 62.604 109.427 62.244 109.427 61.844C109.427 61.436 109.343 61.076 109.175 60.764C109.015 60.444 108.791 60.192 108.503 60.008C108.215 59.824 107.883 59.732 107.507 59.732ZM111.958 65V56.12H113.194V65H111.958ZM120.253 64.172H120.241C119.985 64.42 119.633 64.64 119.185 64.832C118.737 65.024 118.269 65.12 117.781 65.12C117.125 65.12 116.545 64.984 116.041 64.712C115.545 64.432 115.157 64.052 114.877 63.572C114.597 63.084 114.457 62.532 114.457 61.916C114.457 61.212 114.605 60.612 114.901 60.116C115.197 59.612 115.589 59.228 116.077 58.964C116.565 58.692 117.097 58.556 117.673 58.556C118.201 58.556 118.681 58.688 119.113 58.952C119.545 59.208 119.889 59.564 120.145 60.02C120.401 60.476 120.529 61.008 120.529 61.616L120.517 62.144H115.693C115.765 62.712 115.997 63.164 116.389 63.5C116.789 63.828 117.293 63.992 117.901 63.992C118.341 63.992 118.697 63.912 118.969 63.752C119.241 63.584 119.465 63.424 119.641 63.272L120.253 64.172ZM117.673 59.696C117.201 59.696 116.789 59.808 116.437 60.032C116.085 60.248 115.853 60.624 115.741 61.16H119.269V61.076C119.245 60.804 119.153 60.564 118.993 60.356C118.841 60.148 118.649 59.988 118.417 59.876C118.185 59.756 117.937 59.696 117.673 59.696ZM131.091 65L130.299 62.912H126.783L125.991 65H124.671L127.923 56.6H129.243L132.471 65H131.091ZM127.899 59.984L127.263 61.664H129.831L129.171 59.936C129.067 59.656 128.963 59.356 128.859 59.036C128.755 58.708 128.651 58.38 128.547 58.052C128.435 58.388 128.323 58.724 128.211 59.06C128.107 59.396 128.003 59.704 127.899 59.984ZM137.165 60.032C137.085 59.992 136.985 59.96 136.865 59.936C136.753 59.904 136.633 59.888 136.505 59.888C136.249 59.888 135.997 59.956 135.749 60.092C135.501 60.22 135.293 60.408 135.125 60.656C134.965 60.896 134.885 61.184 134.885 61.52V65H133.637V58.7H134.885V59.888C135.061 59.504 135.325 59.188 135.677 58.94C136.037 58.692 136.413 58.568 136.805 58.568C137.101 58.568 137.329 58.608 137.489 58.688L137.165 60.032ZM144.244 61.844C144.244 62.484 144.1 63.052 143.812 63.548C143.532 64.036 143.148 64.42 142.66 64.7C142.18 64.98 141.64 65.12 141.04 65.12C140.44 65.12 139.896 64.98 139.408 64.7C138.92 64.42 138.532 64.036 138.244 63.548C137.964 63.052 137.824 62.484 137.824 61.844C137.824 61.204 137.964 60.64 138.244 60.152C138.532 59.656 138.92 59.268 139.408 58.988C139.896 58.708 140.44 58.568 141.04 58.568C141.64 58.568 142.18 58.708 142.66 58.988C143.148 59.268 143.532 59.656 143.812 60.152C144.1 60.64 144.244 61.204 144.244 61.844ZM142.984 61.844C142.992 61.42 142.908 61.048 142.732 60.728C142.564 60.4 142.332 60.148 142.036 59.972C141.74 59.788 141.408 59.696 141.04 59.696C140.672 59.696 140.336 59.788 140.032 59.972C139.736 60.148 139.5 60.4 139.324 60.728C139.156 61.048 139.076 61.42 139.084 61.844C139.076 62.26 139.156 62.632 139.324 62.96C139.5 63.28 139.736 63.532 140.032 63.716C140.336 63.9 140.672 63.992 141.04 63.992C141.408 63.992 141.74 63.9 142.036 63.716C142.332 63.532 142.564 63.28 142.732 62.96C142.908 62.632 142.992 62.26 142.984 61.844ZM149.887 62.492V58.7H151.123V65H149.887V63.992C149.703 64.288 149.431 64.552 149.071 64.784C148.719 65.008 148.295 65.12 147.799 65.12C147.143 65.12 146.611 64.896 146.203 64.448C145.795 64 145.591 63.38 145.591 62.588V58.7H146.827V62.252C146.827 62.572 146.875 62.868 146.971 63.14C147.075 63.412 147.235 63.632 147.451 63.8C147.675 63.96 147.959 64.04 148.303 64.04C148.735 64.04 149.107 63.904 149.419 63.632C149.731 63.36 149.887 62.98 149.887 62.492ZM156.156 58.568C156.724 58.568 157.164 58.684 157.476 58.916C157.788 59.148 158.004 59.46 158.124 59.852C158.252 60.244 158.316 60.68 158.316 61.16V65H157.08V61.244C157.08 60.94 157.04 60.668 156.96 60.428C156.88 60.188 156.744 60 156.552 59.864C156.36 59.728 156.092 59.672 155.748 59.696C155.428 59.696 155.144 59.764 154.896 59.9C154.648 60.036 154.452 60.216 154.308 60.44C154.164 60.664 154.092 60.912 154.092 61.184V65H152.856V58.7H154.092V59.696C154.284 59.4 154.564 59.14 154.932 58.916C155.3 58.684 155.708 58.568 156.156 58.568ZM165.897 56.12V65H164.661V64.112C164.477 64.36 164.205 64.592 163.845 64.808C163.485 65.016 163.077 65.12 162.621 65.12C162.053 65.12 161.541 64.98 161.085 64.7C160.629 64.42 160.269 64.032 160.005 63.536C159.741 63.04 159.609 62.476 159.609 61.844C159.609 61.204 159.741 60.64 160.005 60.152C160.269 59.656 160.625 59.268 161.073 58.988C161.521 58.708 162.025 58.568 162.585 58.568C163.033 58.568 163.437 58.66 163.797 58.844C164.165 59.028 164.453 59.244 164.661 59.492V56.12H165.897ZM162.789 64.052C163.173 64.052 163.509 63.956 163.797 63.764C164.085 63.572 164.309 63.308 164.469 62.972C164.629 62.636 164.709 62.26 164.709 61.844C164.709 61.42 164.629 61.044 164.469 60.716C164.309 60.38 164.085 60.116 163.797 59.924C163.509 59.732 163.173 59.636 162.789 59.636C162.413 59.636 162.081 59.732 161.793 59.924C161.505 60.116 161.277 60.38 161.109 60.716C160.949 61.044 160.869 61.42 160.869 61.844C160.869 62.26 160.949 62.636 161.109 62.972C161.277 63.308 161.505 63.572 161.793 63.764C162.081 63.956 162.413 64.052 162.789 64.052ZM172.87 65V57.848H170.518V56.6H176.59V57.848H174.166V65H172.87ZM181.176 58.568C181.744 58.568 182.184 58.684 182.496 58.916C182.808 59.148 183.024 59.46 183.144 59.852C183.272 60.244 183.336 60.68 183.336 61.16V65H182.1V61.244C182.1 60.94 182.06 60.668 181.98 60.428C181.9 60.188 181.764 60 181.572 59.864C181.38 59.728 181.112 59.672 180.768 59.696C180.448 59.696 180.164 59.764 179.916 59.9C179.668 60.036 179.472 60.216 179.328 60.44C179.184 60.664 179.112 60.912 179.112 61.184V65H177.876V56.12H179.112V59.696C179.304 59.4 179.584 59.14 179.952 58.916C180.32 58.684 180.728 58.568 181.176 58.568ZM190.424 64.172H190.412C190.156 64.42 189.804 64.64 189.356 64.832C188.908 65.024 188.44 65.12 187.952 65.12C187.296 65.12 186.716 64.984 186.212 64.712C185.716 64.432 185.328 64.052 185.048 63.572C184.768 63.084 184.628 62.532 184.628 61.916C184.628 61.212 184.776 60.612 185.072 60.116C185.368 59.612 185.76 59.228 186.248 58.964C186.736 58.692 187.268 58.556 187.844 58.556C188.372 58.556 188.852 58.688 189.284 58.952C189.716 59.208 190.06 59.564 190.316 60.02C190.572 60.476 190.7 61.008 190.7 61.616L190.688 62.144H185.864C185.936 62.712 186.168 63.164 186.56 63.5C186.96 63.828 187.464 63.992 188.072 63.992C188.512 63.992 188.868 63.912 189.14 63.752C189.412 63.584 189.636 63.424 189.812 63.272L190.424 64.172ZM187.844 59.696C187.372 59.696 186.96 59.808 186.608 60.032C186.256 60.248 186.024 60.624 185.912 61.16H189.44V61.076C189.416 60.804 189.324 60.564 189.164 60.356C189.012 60.148 188.82 59.988 188.588 59.876C188.356 59.756 188.108 59.696 187.844 59.696ZM206.207 56.6L203.531 65H202.631L200.471 59.9L198.383 65H197.507L194.831 56.6H196.211L197.831 61.856C197.887 62.048 197.935 62.232 197.975 62.408C198.023 62.584 198.063 62.752 198.095 62.912C198.135 62.752 198.183 62.584 198.239 62.408C198.295 62.232 198.363 62.044 198.443 61.844L199.955 58.052H201.119L202.583 61.844C202.671 62.06 202.743 62.256 202.799 62.432C202.855 62.6 202.903 62.756 202.943 62.9C202.967 62.756 202.999 62.596 203.039 62.42C203.087 62.244 203.147 62.044 203.219 61.82L204.815 56.6H206.207ZM213.091 61.844C213.091 62.484 212.947 63.052 212.659 63.548C212.379 64.036 211.995 64.42 211.507 64.7C211.027 64.98 210.487 65.12 209.887 65.12C209.287 65.12 208.743 64.98 208.255 64.7C207.767 64.42 207.379 64.036 207.091 63.548C206.811 63.052 206.671 62.484 206.671 61.844C206.671 61.204 206.811 60.64 207.091 60.152C207.379 59.656 207.767 59.268 208.255 58.988C208.743 58.708 209.287 58.568 209.887 58.568C210.487 58.568 211.027 58.708 211.507 58.988C211.995 59.268 212.379 59.656 212.659 60.152C212.947 60.64 213.091 61.204 213.091 61.844ZM211.831 61.844C211.839 61.42 211.755 61.048 211.579 60.728C211.411 60.4 211.179 60.148 210.883 59.972C210.587 59.788 210.255 59.696 209.887 59.696C209.519 59.696 209.183 59.788 208.879 59.972C208.583 60.148 208.347 60.4 208.171 60.728C208.003 61.048 207.923 61.42 207.931 61.844C207.923 62.26 208.003 62.632 208.171 62.96C208.347 63.28 208.583 63.532 208.879 63.716C209.183 63.9 209.519 63.992 209.887 63.992C210.255 63.992 210.587 63.9 210.883 63.716C211.179 63.532 211.411 63.28 211.579 62.96C211.755 62.632 211.839 62.26 211.831 61.844ZM217.966 60.032C217.886 59.992 217.786 59.96 217.666 59.936C217.554 59.904 217.434 59.888 217.306 59.888C217.05 59.888 216.798 59.956 216.55 60.092C216.302 60.22 216.094 60.408 215.926 60.656C215.766 60.896 215.686 61.184 215.686 61.52V65H214.438V58.7H215.686V59.888C215.862 59.504 216.126 59.188 216.478 58.94C216.838 58.692 217.214 58.568 217.606 58.568C217.902 58.568 218.13 58.608 218.29 58.688L217.966 60.032ZM219.278 65V56.12H220.514V65H219.278ZM228.065 56.12V65H226.829V64.112C226.645 64.36 226.373 64.592 226.013 64.808C225.653 65.016 225.245 65.12 224.789 65.12C224.221 65.12 223.709 64.98 223.253 64.7C222.797 64.42 222.437 64.032 222.173 63.536C221.909 63.04 221.777 62.476 221.777 61.844C221.777 61.204 221.909 60.64 222.173 60.152C222.437 59.656 222.793 59.268 223.241 58.988C223.689 58.708 224.193 58.568 224.753 58.568C225.201 58.568 225.605 58.66 225.965 58.844C226.333 59.028 226.621 59.244 226.829 59.492V56.12H228.065ZM224.957 64.052C225.341 64.052 225.677 63.956 225.965 63.764C226.253 63.572 226.477 63.308 226.637 62.972C226.797 62.636 226.877 62.26 226.877 61.844C226.877 61.42 226.797 61.044 226.637 60.716C226.477 60.38 226.253 60.116 225.965 59.924C225.677 59.732 225.341 59.636 224.957 59.636C224.581 59.636 224.249 59.732 223.961 59.924C223.673 60.116 223.445 60.38 223.277 60.716C223.117 61.044 223.037 61.42 223.037 61.844C223.037 62.26 223.117 62.636 223.277 62.972C223.445 63.308 223.673 63.572 223.961 63.764C224.249 63.956 224.581 64.052 224.957 64.052Z" fill="#4060D2"/>
</svg>
